<?xml version="1.0" standalone="no"?>
<!DOCTYPE svg PUBLIC "-//W3C//DTD SVG 20010904//EN"
 "http://www.w3.org/TR/2001/REC-SVG-20010904/DTD/svg10.dtd">
<svg version="1.0" xmlns="http://www.w3.org/2000/svg"
 width="365.000000pt" height="317.000000pt" viewBox="0 0 365.000000 317.000000"
 preserveAspectRatio="xMidYMid meet">
<metadata>
Created by potrace 1.12, written by Peter Selinger 2001-2015
</metadata>
<g transform="translate(0.000000,317.000000) scale(0.100000,-0.100000)"
fill="#000000" stroke="none">
<path d="M1759 3137 c-137 -51 -214 -163 -213 -307 1 -137 98 -253 238 -285
l51 -12 1 -119 c1 -65 2 -635 3 -1266 1 -1141 1 -1148 21 -1148 20 0 20 7 22
638 2 821 6 1749 7 1833 l1 66 45 13 c92 26 167 95 206 190 21 53 18 166 -8
221 -29 64 -87 126 -147 156 -62 31 -171 41 -227 20z m210 -62 c116 -59 168
-187 129 -317 -14 -49 -78 -123 -128 -148 -182 -93 -396 55 -377 261 16 182
212 288 376 204z"/>
<path d="M2484 2286 c-66 -16 -137 -58 -168 -99 -113 -148 -83 -353 66 -451
29 -20 77 -40 106 -46 l52 -12 0 -839 0 -839 25 0 25 0 0 840 c0 664 3 841 13
844 155 45 245 146 254 286 14 200 -179 364 -373 316z m157 -51 c64 -22 113
-67 144 -129 85 -174 -35 -375 -224 -376 -76 0 -125 17 -177 63 -83 73 -110
166 -80 271 41 140 197 219 337 171z"/>
<path d="M1155 1857 c-130 -43 -213 -147 -222 -277 -11 -153 99 -293 251 -318
l41 -8 3 -627 c2 -619 2 -627 22 -627 20 0 20 7 20 628 l0 628 48 12 c104 27
186 107 213 207 6 22 9 72 7 111 -8 116 -67 202 -174 255 -53 25 -156 33 -209
16z m167 -49 c50 -15 122 -78 151 -132 29 -54 31 -174 3 -226 -63 -120 -199
-177 -322 -136 -185 61 -239 304 -97 438 64 61 172 84 265 56z"/>
</g>
</svg>
