<?xml version="1.0" standalone="no"?>
<!DOCTYPE svg PUBLIC "-//W3C//DTD SVG 20010904//EN"
 "http://www.w3.org/TR/2001/REC-SVG-20010904/DTD/svg10.dtd">
<svg version="1.0" xmlns="http://www.w3.org/2000/svg"
 width="500.000000pt" height="445.000000pt" viewBox="0 0 500.000000 445.000000"
 preserveAspectRatio="xMidYMid meet">
<metadata>
Created by potrace 1.12, written by Peter Selinger 2001-2015
</metadata>
<g transform="translate(0.000000,445.000000) scale(0.100000,-0.100000)"
fill="#000000" stroke="none">
<path d="M1872 4273 c-14 -3 -22 -11 -20 -21 2 -11 -4 -17 -17 -17 -11 0 -20
7 -20 15 0 8 -6 15 -12 14 -7 -1 -32 -2 -55 -4 -41 -2 -42 -3 -13 -10 17 -4
-37 -5 -119 -2 -112 4 -147 2 -142 -6 5 -8 -3 -12 -26 -12 -26 0 -30 3 -18 11
11 7 -2 8 -45 4 -108 -12 -325 -45 -389 -59 -35 -8 -119 -24 -187 -36 -68 -11
-132 -23 -141 -26 -26 -8 -22 -24 4 -18 23 5 86 15 358 53 80 11 175 25 212
31 37 5 91 12 120 15 29 2 72 7 96 11 28 4 42 3 42 -4 0 -7 8 -9 18 -5 11 4 8
-2 -9 -19 -15 -14 -30 -39 -34 -57 -4 -17 -11 -29 -16 -25 -5 3 -9 1 -9 -5 0
-5 5 -13 10 -16 6 -4 4 -12 -5 -22 -9 -9 -14 -22 -11 -30 3 -7 0 -23 -6 -33
-10 -16 -10 -22 1 -32 11 -11 13 -11 7 0 -4 7 -2 19 4 27 7 8 10 24 7 36 -4
15 -2 19 9 15 8 -3 13 -2 11 2 -3 4 2 14 11 21 14 13 15 12 10 -7 -4 -12 -2
-22 3 -22 5 0 9 6 10 13 1 6 5 1 9 -13 6 -19 8 -9 9 38 1 38 5 62 12 62 6 0 9
-9 6 -20 -3 -11 -1 -23 4 -26 6 -4 6 -11 -1 -19 -8 -10 -8 -15 0 -20 6 -4 7
-12 3 -18 -8 -11 -9 -34 -3 -47 1 -3 3 -36 5 -74 1 -44 7 -72 16 -78 11 -7 11
-11 2 -15 -7 -2 -13 -11 -13 -18 0 -8 -10 -16 -22 -18 -16 -3 -12 -5 11 -6 71
-2 17 -15 -62 -14 -57 1 -76 -2 -62 -8 13 -6 -11 -7 -68 -4 -48 4 -131 1 -185
-4 -147 -16 -181 -19 -188 -12 -3 3 14 11 38 18 l43 13 -44 -5 c-34 -4 -47 -2
-58 12 -13 17 -14 16 -8 -10 3 -17 0 -33 -8 -41 -16 -16 -105 -37 -150 -35
l-32 2 35 7 c41 9 -54 3 -135 -8 l-50 -6 35 -8 c24 -5 17 -6 -22 -2 -36 2 -58
0 -58 -6 0 -5 -15 -10 -34 -10 -34 0 -35 -1 -45 -52 -44 -219 -51 -269 -41
-286 11 -15 11 -15 6 2 -8 23 14 142 23 127 4 -5 7 9 7 32 0 65 15 139 30 155
11 11 15 11 18 0 13 -40 14 -42 15 -20 1 12 6 22 11 22 13 0 13 -4 -6 -48 -9
-20 -18 -64 -19 -97 -2 -33 -3 -71 -4 -84 -1 -19 -3 -21 -16 -11 -12 10 -17 6
-29 -22 -18 -40 -31 -105 -28 -136 2 -15 -1 -21 -7 -17 -7 3 -12 -4 -12 -17
-1 -13 -5 -5 -8 17 l-7 40 -5 -42 c-2 -23 -2 -41 1 -41 24 2 112 -3 109 -6 -3
-3 -54 -10 -116 -16 -11 -1 0 -20 12 -20 8 0 15 -8 14 -17 0 -11 -3 -13 -6 -5
-11 27 -33 12 -33 -22 l0 -34 73 3 72 2 -73 -12 c-39 -6 -74 -14 -76 -16 -2
-2 -6 -22 -8 -44 -3 -22 -3 -33 -1 -24 3 12 11 15 25 11 20 -5 20 -6 3 -19
-17 -12 -15 -13 21 -13 95 0 383 24 372 32 -7 4 -8 8 -2 8 5 0 14 -4 20 -10
11 -11 86 8 79 20 -2 4 8 5 23 3 23 -3 24 -2 7 6 -16 8 -13 10 20 10 22 0 49
-5 60 -10 19 -9 19 -9 -2 -5 -12 2 -39 -2 -60 -10 l-38 -14 40 4 c22 3 76 8
120 12 70 6 76 8 51 17 -20 7 -35 6 -48 -2 -24 -15 -38 -14 -38 4 0 11 -12 15
-42 17 l-43 1 45 7 c38 6 32 7 -40 8 -50 1 -79 -2 -72 -7 11 -7 10 -10 -3 -15
-24 -9 -32 -7 -15 4 11 7 3 10 -30 11 -43 1 -43 2 15 9 33 4 125 13 205 19 80
6 177 14 217 17 l72 6 -2 -43 c-2 -38 1 -43 23 -49 32 -9 -54 -17 -250 -25
-80 -3 -208 -10 -285 -15 -77 -5 -207 -14 -288 -20 -81 -6 -153 -11 -160 -13
-10 -2 -54 -299 -56 -381 -1 -36 10 -8 15 36 30 293 31 298 60 298 15 0 24 -6
24 -16 0 -8 3 -13 8 -11 8 5 151 16 250 19 56 1 63 3 59 20 -7 24 10 33 28 14
10 -10 11 -16 3 -18 -12 -4 -21 -69 -34 -227 -3 -45 -9 -95 -13 -110 l-7 -26
-160 4 c-87 1 -166 6 -174 11 -22 11 -40 1 -40 -21 0 -21 16 -26 23 -6 3 6 6
7 6 2 1 -11 93 -11 110 -1 5 4 12 2 16 -4 3 -5 18 -10 33 -9 24 0 25 1 7 10
-16 7 -14 8 10 4 34 -5 145 -9 190 -6 l30 1 0 79 c1 50 6 85 14 95 7 9 9 16 4
16 -6 0 -8 11 -5 25 2 14 -1 31 -7 39 -10 12 -9 14 6 10 16 -5 18 2 17 76 -1
46 3 83 9 87 6 3 7 1 3 -5 -4 -7 -1 -12 6 -12 8 0 9 -3 3 -8 -6 -4 -12 -23
-12 -42 -2 -35 -2 -35 8 -7 11 29 32 39 22 10 -5 -15 -3 -16 8 -5 7 6 37 12
67 12 52 0 54 -1 50 -25 -3 -15 -1 -22 5 -18 10 6 5 -34 -8 -70 -5 -12 -3 -16
6 -14 8 2 11 2 7 0 -5 -3 -8 -11 -8 -18 0 -9 -16 -15 -47 -18 -44 -3 -43 -4
14 -5 39 -1 63 -7 66 -14 3 -10 7 -10 19 -1 8 7 59 17 114 22 l99 9 -90 0
c-138 -1 -133 -2 -129 29 1 15 -2 36 -8 46 -6 12 -6 17 0 13 5 -3 12 8 14 24
3 21 0 30 -9 30 -8 0 -11 5 -8 10 3 6 44 10 89 10 111 0 146 7 146 31 0 11 -7
19 -17 19 -9 0 -14 3 -11 6 11 11 43 11 56 1 10 -8 12 -7 10 4 -2 10 9 15 37
17 26 2 35 -1 27 -6 -8 -5 -18 -42 -23 -83 -15 -118 -25 -279 -17 -271 3 4 10
57 14 117 4 61 9 130 13 155 l6 45 117 1 116 1 6 -81 c3 -45 6 -125 5 -178
l-1 -98 -51 -2 c-29 0 -56 -2 -62 -3 -5 -2 -34 -3 -64 -4 -59 -1 -62 -9 -9
-21 30 -7 29 -8 -19 -9 -32 -1 -57 -7 -67 -17 -10 -10 -32 -14 -63 -13 -92 3
-913 -18 -919 -23 -5 -6 -24 -221 -30 -351 -6 -114 -5 -137 7 -138 8 -1 19 -2
24 -4 6 -1 21 -3 35 -5 14 -2 1 -6 -30 -10 l-55 -7 55 -1 c56 -2 60 -18 5 -24
-26 -3 -30 -8 -33 -37 -2 -20 0 -31 7 -27 5 4 12 2 16 -4 3 -5 -1 -10 -10 -10
-11 0 -15 -5 -11 -16 3 -8 2 -12 -4 -9 -6 3 -10 0 -10 -8 0 -9 9 -12 30 -9 39
6 40 -16 1 -24 -23 -5 -28 -10 -24 -28 4 -17 3 -18 -6 -6 -9 12 -10 7 -5 -20
3 -19 2 -82 -3 -140 -6 -91 -8 -99 -13 -55 -3 28 -6 -24 -5 -115 0 -114 4
-169 12 -178 9 -9 9 -20 1 -43 -8 -23 -13 -27 -19 -17 -6 9 -9 7 -9 -9 0 -16
6 -23 20 -23 35 0 52 -57 20 -72 -12 -5 -12 -7 3 -7 9 -1 17 -8 17 -17 0 -11
-6 -13 -19 -9 -11 3 -22 1 -26 -4 -3 -7 0 -8 9 -5 9 3 16 1 16 -5 0 -6 -11
-13 -25 -17 -25 -6 -25 -7 -26 -128 -1 -66 -4 -108 -8 -91 l-6 29 -17 -39
c-26 -58 -48 -153 -48 -201 l0 -43 48 -7 c75 -10 128 -22 111 -23 -15 -1 -15
-7 -7 -44 6 -23 11 -87 12 -142 l1 -100 29 -14 c25 -12 43 -12 108 -2 43 7 83
9 88 6 14 -8 -6 -27 -47 -46 -18 -7 -33 -17 -33 -20 0 -3 62 -9 138 -13 75 -4
155 -9 177 -12 22 -2 66 -4 99 -5 54 -2 57 -3 35 -15 -13 -7 -37 -14 -54 -15
-29 -1 -29 -1 -5 -8 14 -4 50 -3 80 2 100 15 426 23 438 10 16 -17 114 -27
201 -20 92 8 211 40 266 72 22 13 66 26 100 30 33 4 112 16 175 26 430 74
1090 184 1220 205 85 13 200 31 255 39 56 9 176 20 269 25 169 9 266 29 266
54 0 17 56 69 68 63 5 -4 22 -2 38 3 16 4 23 9 17 9 -20 1 -15 21 5 21 14 0
15 2 2 10 -10 6 -16 6 -18 0 -2 -6 -9 -7 -14 -4 -6 4 -18 -2 -26 -12 -14 -18
-14 -18 -7 1 4 11 13 47 19 80 10 51 15 60 35 63 13 2 27 -2 31 -8 10 -16 125
-3 141 16 6 8 29 14 49 14 21 0 67 7 102 17 35 9 88 17 118 17 30 1 66 7 80
13 14 7 46 15 72 18 51 7 82 30 54 41 -9 4 -55 2 -102 -3 -47 -5 -88 -5 -90
-1 -3 4 14 9 38 9 33 1 25 4 -32 11 -41 5 -78 12 -82 16 -4 4 -11 162 -17 352
-9 302 -21 696 -21 710 0 2 -5 -1 -12 -8 -7 -7 -21 -12 -32 -12 -49 1 34 29
135 46 148 24 153 26 146 71 -4 20 -11 39 -17 43 -8 5 -8 14 0 32 15 32 -13
428 -31 439 -8 5 -8 8 0 10 17 6 -8 347 -27 365 -9 9 -9 14 -2 14 7 0 10 16 8
43 -2 34 -6 41 -20 39 -10 -2 -18 2 -18 8 0 6 4 9 9 5 5 -3 13 -1 16 5 7 11
-19 333 -35 434 -5 32 -7 62 -5 66 2 3 -9 5 -24 2 -24 -3 -29 0 -33 22 -3 15
-1 23 5 19 5 -3 13 1 18 8 7 11 9 10 9 -3 0 -10 -4 -18 -10 -18 -5 0 -10 -4
-10 -10 0 -5 7 -10 16 -10 14 0 15 7 10 38 -13 84 -88 282 -106 282 -6 0 -10
-5 -10 -11 0 -5 5 -7 10 -4 6 3 10 2 10 -4 0 -20 -41 -6 -46 16 -3 12 -16 24
-27 26 -20 4 -19 4 3 6 19 1 22 3 11 10 -9 6 -22 6 -33 0 -14 -7 -16 -6 -12 6
4 8 1 15 -7 15 -7 0 -10 3 -6 6 3 3 12 2 19 -2 18 -12 48 -15 48 -6 0 4 -9 13
-20 20 -12 7 -19 16 -16 21 3 4 -1 8 -9 8 -8 0 -11 -5 -8 -10 3 -6 2 -7 -3 -4
-5 3 -32 8 -59 12 -28 4 -61 8 -75 10 -14 3 -49 5 -78 6 -29 1 -48 6 -41 10 7
4 19 5 28 2 14 -4 14 -3 1 6 -8 6 -35 11 -60 12 l-45 2 50 7 50 7 -45 2 c-62
2 -88 10 -94 30 -3 9 -4 -1 -1 -21 2 -21 0 -38 -6 -38 -5 0 -9 5 -9 11 0 5 -4
8 -9 5 -5 -4 -11 -2 -13 3 -1 5 -21 11 -43 13 -22 2 -45 7 -51 10 -5 4 -15 3
-22 -1 -6 -4 -67 -1 -134 5 -110 12 -125 11 -140 -3 -15 -14 -18 -14 -18 -2 0
8 5 20 10 25 7 7 -5 11 -36 13 -46 2 -46 2 -40 -24 l7 -26 -31 31 c-27 27 -36
31 -65 26 -19 -4 -36 -2 -40 4 -3 5 -14 10 -23 10 -15 0 -15 -2 -2 -11 12 -8
11 -9 -5 -5 -11 3 -42 7 -70 11 -38 4 -45 3 -30 -5 17 -9 14 -10 -12 -5 -44 6
-99 -5 -81 -16 16 -10 -49 -12 -116 -3 -33 5 -46 11 -46 23 -1 14 -2 14 -11
-1 -5 -9 -15 -15 -22 -13 -6 2 -25 6 -41 10 -21 4 -26 9 -17 14 9 6 5 10 -13
15 -15 4 -24 11 -21 16 4 6 -13 10 -42 9 -39 -1 -43 -3 -23 -9 15 -5 19 -8 8
-9 -9 -1 -29 4 -45 11 -15 6 -41 12 -58 13 -16 1 -39 6 -49 10 -11 5 -17 5
-14 -1 3 -5 -34 -10 -87 -12 -58 -2 -96 1 -100 7 -3 6 -22 11 -41 11 -27 0
-34 -4 -34 -20 0 -13 -6 -20 -17 -19 -10 0 -13 3 -6 5 20 9 3 32 -27 39 -20 4
-27 11 -23 21 3 9 -1 14 -12 14 -10 0 -13 -5 -9 -12 7 -11 -10 -9 -50 8 -12 4
-17 4 -13 -2 3 -6 -16 -6 -54 0 -45 7 -65 7 -79 -2 -26 -16 -30 -15 -30 3 0
13 -4 14 -22 4 -25 -13 -207 -14 -221 0 -4 4 7 6 25 3 18 -2 31 -2 28 0 -8 9
-73 16 -98 11z m8 -253 c6 -74 16 -162 21 -195 l8 -60 -4 70 c-2 39 -7 106
-11 149 -5 57 -4 77 5 72 6 -4 11 0 11 10 0 16 1 16 14 -2 8 -10 27 -20 43
-20 80 -5 88 -7 38 -14 l-50 -7 60 -3 c33 -1 62 -2 65 -2 3 0 16 3 30 7 19 5
21 4 10 -4 -11 -8 -5 -11 28 -11 30 0 47 -6 59 -20 18 -21 53 -27 53 -10 0 6
10 14 23 19 23 9 35 -4 36 -41 1 -14 -7 -18 -34 -18 -19 0 -35 5 -35 10 0 6
-12 10 -27 10 -21 0 -24 -3 -14 -9 9 -6 -26 -8 -90 -6 l-104 4 93 -9 c51 -4
95 -10 97 -12 4 -4 6 -46 5 -125 l0 -33 -88 -2 -87 -1 95 -7 c169 -14 340 -15
340 -2 0 4 -52 6 -116 5 l-116 -2 7 41 c5 29 4 39 -4 34 -6 -4 -11 -2 -11 3 0
6 4 11 9 11 6 0 11 17 13 38 3 36 4 37 46 37 l42 1 2 -46 1 -45 4 40 c3 22 9
45 14 51 7 8 6 14 -1 19 -5 3 -10 17 -10 31 0 19 5 24 24 24 13 0 27 8 31 18
6 14 9 12 20 -13 19 -43 18 -23 -1 25 -9 22 -21 40 -27 40 -7 0 -7 4 1 12 10
10 15 10 22 -2 5 -8 7 -17 4 -21 -2 -4 0 -10 5 -14 13 -7 5 33 -10 51 -6 8
-15 12 -19 9 -4 -3 -13 2 -20 10 -19 23 32 14 53 -10 17 -20 17 -20 11 0 -5
13 -4 17 3 10 9 -9 26 -135 40 -308 3 -37 10 -70 15 -73 5 -4 7 18 3 53 -28
278 -33 359 -25 367 7 7 10 3 11 -9 0 -11 2 -28 4 -38 2 -9 7 -52 11 -95 3
-42 10 -106 14 -142 l7 -65 1 55 c0 30 -2 87 -6 127 -6 58 -5 70 5 61 7 -6 13
-17 13 -24 0 -13 20 -19 44 -15 5 1 13 -3 17 -10 4 -7 36 -15 71 -17 35 -2 68
-8 73 -14 6 -5 10 -54 10 -110 0 -88 2 -101 18 -104 14 -2 17 6 18 44 1 59 8
143 15 161 3 9 17 12 43 9 22 -2 37 0 35 3 -9 14 29 18 77 8 36 -8 53 -17 59
-32 8 -20 9 -19 9 8 0 17 -4 39 -8 50 -10 24 -3 47 11 39 6 -4 8 -1 6 7 -3 8
-10 13 -16 12 -5 -1 -9 5 -8 14 0 10 -10 20 -24 24 -16 6 -10 6 18 3 25 -4 48
-1 56 5 12 10 15 -6 21 -96 4 -59 11 -130 16 -157 8 -52 7 -15 -6 178 l-5 69
102 -6 c57 -4 154 -9 216 -13 61 -4 112 -11 112 -16 0 -6 -23 -7 -59 -3 -100
12 -341 20 -341 13 0 -5 25 -8 55 -8 34 0 55 -4 55 -11 0 -8 -14 -10 -43 -6
-24 3 -53 4 -64 1 -18 -5 -20 -10 -13 -34 17 -60 26 -68 91 -75 41 -5 62 -12
67 -23 3 -9 0 -18 -6 -20 -16 -5 -5 -22 14 -22 8 0 13 4 10 8 -2 4 4 19 14 32
18 23 25 25 120 26 94 1 102 -1 110 -20 7 -18 9 -16 11 14 1 34 2 33 14 -15
12 -44 13 -46 16 -20 1 17 1 48 0 70 -2 38 -2 39 13 20 15 -19 15 -18 16 22 0
23 4 44 9 48 6 3 10 -3 10 -12 -1 -10 4 -47 9 -83 9 -62 10 -63 12 -20 3 67
14 20 30 -123 7 -65 17 -120 22 -123 6 -4 5 -10 -3 -15 -10 -6 -10 -9 -2 -9 7
0 10 -7 7 -15 -4 -8 -10 -12 -15 -9 -5 3 -9 2 -9 -3 0 -4 -55 -5 -122 -1 -68
3 -154 7 -193 9 l-70 2 55 7 55 7 -75 1 c-41 1 -100 4 -130 7 -41 3 -47 2 -25
-4 l30 -9 -37 -1 c-30 -1 -38 -5 -38 -19 0 -15 -8 -19 -32 -19 -18 0 -25 2
-15 4 9 3 14 9 11 15 -4 6 -2 8 4 4 6 -3 13 -2 16 3 11 17 -37 25 -136 22 -53
-2 -103 1 -110 5 -7 4 -51 8 -98 7 l-85 0 70 7 c55 6 43 7 -60 5 -71 -1 -191
1 -265 5 l-135 7 100 3 c75 2 30 6 -179 17 -187 9 -283 10 -290 3 -6 -6 -4
-74 7 -202 10 -106 17 -220 17 -253 l0 -60 -282 5 c-156 3 -319 2 -363 -2 -63
-6 -432 -32 -719 -51 l-38 -3 7 69 c3 37 14 123 24 190 17 112 17 123 2 134
-14 12 -14 12 1 7 14 -5 19 2 24 35 7 41 18 59 28 43 2 -4 0 -28 -5 -53 -6
-24 -17 -89 -24 -144 -8 -55 -20 -135 -26 -178 -6 -43 -9 -81 -6 -84 8 -8 250
19 262 29 5 4 -4 8 -20 9 -28 1 -28 1 -6 8 l24 6 -29 14 c-28 12 -28 13 -9 27
10 8 25 14 32 14 7 0 13 7 13 15 0 8 -8 15 -17 15 -12 0 -7 11 22 40 21 21 43
36 49 33 6 -3 8 -2 3 2 -4 5 9 26 30 47 21 21 31 38 23 38 -9 0 -7 7 8 20 12
11 33 20 47 20 18 0 25 -5 25 -20 0 -11 5 -20 10 -20 6 0 10 9 10 20 0 11 -4
20 -10 20 -24 0 -6 33 41 77 29 26 58 63 66 82 11 26 17 31 26 22 8 -8 8 -14
2 -19 -6 -4 -11 -18 -12 -32 0 -14 -4 -45 -8 -70 -4 -25 -8 -58 -10 -75 -15
-157 -17 -189 -12 -185 2 3 8 37 11 75 4 39 9 77 11 85 2 8 11 64 20 124 13
89 13 111 3 117 -8 6 -2 8 17 8 17 0 24 -3 17 -6 -26 -10 -1 -21 33 -13 20 4
38 4 41 -1 6 -11 -16 -21 -51 -23 -21 -1 -25 -7 -31 -53 -3 -28 -4 -58 -1 -65
3 -7 6 2 6 20 1 17 6 32 11 32 6 0 10 12 11 28 0 15 3 21 6 15 7 -18 23 -16
23 3 0 10 6 14 14 11 15 -6 30 19 20 34 -3 5 5 9 17 9 17 0 20 -3 12 -11 -6
-6 -9 -18 -6 -25 3 -8 -3 -17 -14 -21 -15 -6 -18 -14 -12 -33 4 -14 7 -18 8
-9 1 8 10 25 22 38 16 17 20 30 15 52 -3 17 -1 29 5 29 6 0 8 -4 5 -8 -2 -4
-1 -14 5 -22 7 -13 9 -12 9 3 0 12 8 17 29 17 17 0 33 -5 37 -12 5 -7 3 -8 -5
-4 -9 6 -10 -1 -5 -31 7 -37 7 -69 -2 -198 -2 -33 -5 -100 -7 -148 l-4 -88 61
3 c55 3 61 5 64 26 2 13 9 21 15 19 7 -2 11 -11 9 -20 -1 -9 7 -19 20 -23 16
-5 27 -1 40 16 20 24 24 50 8 50 -5 0 -10 -9 -10 -20 0 -11 -6 -20 -13 -20
-24 0 -27 13 -7 27 14 10 20 26 20 54 0 21 5 39 10 39 6 0 10 -18 10 -40 0
-28 4 -40 14 -40 8 0 17 -12 19 -27 2 -16 5 2 6 40 0 37 5 67 11 67 6 0 10 7
10 16 0 9 7 14 17 12 25 -5 28 -28 4 -28 -14 0 -21 -6 -21 -20 0 -17 7 -20 39
-20 22 0 41 5 44 13 3 10 9 10 26 0 11 -7 28 -13 36 -13 21 0 19 30 -2 31 -16
1 -16 2 -1 6 9 2 19 12 21 21 3 9 5 -8 6 -39 1 -47 -2 -56 -16 -56 -10 1 -47
0 -82 -1 l-65 -2 35 -36 c31 -33 34 -34 37 -14 4 27 33 23 46 -6 8 -17 18 -21
53 -20 24 1 43 3 44 6 6 38 -8 481 -16 488 -3 3 -45 8 -93 10 -48 2 -114 7
-147 12 -51 6 -41 8 68 9 70 0 127 4 127 9 0 4 -36 6 -80 4 -61 -3 -80 0 -81
10 -2 16 3 115 6 143 1 11 3 27 4 36 1 12 8 15 26 11 22 -4 25 -1 25 22 0 18
5 26 18 27 15 0 14 2 -3 9 -17 8 -16 9 9 7 20 -1 30 -8 32 -20 4 -30 14 -33
14 -5 0 14 -7 41 -15 61 -14 34 -14 35 10 35 14 0 25 -3 25 -7 0 -3 5 -44 10
-90 5 -46 12 -121 16 -165 3 -45 10 -85 16 -91 6 -6 7 10 4 45 -3 30 -10 111
-16 180 -6 69 -13 140 -14 157 -2 18 -1 35 3 38 10 10 18 -35 31 -175z m2251
-65 l2 -40 6 35 7 35 7 -44 8 -44 87 7 c48 3 121 9 163 12 l77 7 25 -44 c38
-67 59 -144 55 -199 -3 -52 0 -58 20 -38 14 14 16 42 2 33 -5 -3 -10 3 -10 15
0 12 4 19 9 16 5 -3 11 1 15 9 3 8 11 15 18 15 10 0 10 -2 -1 -9 -7 -5 -11
-13 -7 -19 9 -14 -5 -73 -15 -66 -5 3 -9 1 -9 -4 0 -11 -212 -21 -220 -11 -9
12 -200 19 -200 7 0 -7 -4 -7 -12 -1 -7 6 -65 13 -128 17 -316 18 -334 19
-319 29 2 1 57 0 122 -3 64 -3 117 -2 117 3 0 4 -5 7 -11 7 -5 0 -7 5 -4 10 3
6 1 10 -5 10 -6 0 -8 10 -5 23 3 12 -1 49 -9 82 -10 39 -11 64 -5 71 7 8 6 14
-3 17 -7 2 11 7 40 12 29 4 56 4 59 1 4 -3 -6 -6 -21 -6 -16 0 -25 -4 -21 -10
10 -16 124 -8 117 8 -2 8 -12 10 -24 6 -14 -4 -18 -2 -14 5 4 6 14 11 22 11 8
0 14 11 15 28 0 26 1 26 9 5 14 -34 22 -28 14 12 -3 19 -3 43 1 52 7 17 8 16
15 -2 5 -11 10 -38 11 -60z m-516 -328 c11 -2 23 0 26 6 4 5 12 6 19 2 7 -5
32 -9 54 -9 177 -6 200 -8 181 -16 -11 -4 20 -6 73 -3 65 2 92 0 92 -8 0 -6 7
-9 15 -5 8 3 15 1 15 -5 0 -7 -10 -9 -22 -6 -13 4 -104 9 -203 12 -99 4 -183
8 -186 11 -11 6 -15 -28 -8 -66 l6 -35 2 38 c1 35 3 37 34 37 18 0 39 -6 46
-12 10 -9 12 -9 7 -1 -5 9 4 10 31 6 42 -6 54 -13 36 -20 -15 -5 -17 -43 -3
-43 6 0 10 -7 10 -16 0 -11 5 -14 16 -10 9 3 27 6 40 6 19 0 24 5 24 25 0 23
4 25 40 25 33 0 40 -3 40 -19 0 -15 8 -21 33 -24 25 -3 22 -4 -15 -5 -42 -2
-46 0 -41 18 4 16 0 20 -17 20 -17 0 -21 -4 -17 -20 3 -11 1 -20 -5 -20 -5 0
-16 -6 -24 -14 -12 -13 -10 -15 18 -18 25 -2 34 -8 36 -25 2 -13 9 -23 17 -23
7 0 15 -6 18 -12 3 -10 9 -10 26 0 11 6 26 12 32 12 6 0 17 7 26 15 8 8 19 13
24 10 14 -10 10 -25 -6 -25 -9 0 -26 -9 -37 -20 -18 -17 -20 -22 -9 -33 11 -9
14 -9 18 1 3 6 12 12 22 12 10 0 28 12 40 26 21 24 22 33 17 95 -5 46 -3 69 4
69 5 0 10 -6 10 -12 0 -7 7 -85 15 -173 8 -88 15 -167 15 -176 0 -15 -23 -16
-237 -12 -131 2 -242 9 -247 14 -6 5 -1 18 12 32 30 32 28 42 -2 12 -24 -24
-25 -29 -21 -132 3 -59 8 -110 12 -114 10 -9 123 12 123 23 0 4 12 7 28 7 22
-1 23 -2 5 -6 -31 -6 -48 -28 -22 -30 11 -1 17 2 14 7 -3 4 12 6 33 4 20 -2
82 -6 137 -9 55 -4 103 -10 107 -13 10 -10 -1090 -2 -1115 7 -13 5 3 7 41 6
76 -2 87 4 79 44 -4 16 -2 33 3 36 6 3 11 -2 11 -12 1 -10 3 -25 4 -33 1 -8 3
-20 4 -27 1 -8 59 -11 209 -11 124 1 197 4 182 9 -18 6 -10 7 25 4 35 -3 44
-2 30 4 -16 8 -11 10 25 12 31 2 18 5 -40 9 l-85 6 65 4 65 3 -65 7 -65 7 88
1 c65 2 87 5 87 15 0 8 -8 14 -17 14 -10 -1 -103 1 -208 3 l-190 3 185 11
c102 6 172 12 155 14 -16 1 -37 5 -45 8 -13 4 -13 6 0 14 12 7 10 11 -10 19
-24 9 -23 10 10 11 19 1 53 2 74 3 57 3 55 22 -1 22 -357 3 -470 9 -470 24 0
9 5 19 11 23 8 5 7 11 -2 20 -14 14 -16 68 -2 68 6 0 10 -11 10 -24 0 -13 7
-29 16 -37 14 -11 14 -13 0 -21 -39 -22 -8 -28 142 -27 l157 1 -70 15 c-48 10
-71 11 -73 4 -5 -15 -27 -14 -53 2 -17 10 -23 10 -26 0 -3 -8 -21 -13 -46 -12
l-42 1 43 10 c37 8 42 12 42 38 0 16 -5 32 -11 36 -7 4 -7 9 -2 13 13 8 24 81
12 81 -10 0 -12 53 -3 86 4 15 11 20 25 17 10 -3 19 -9 19 -14 0 -5 27 -6 60
-2 l60 6 0 -67 0 -67 52 3 c41 2 54 7 56 21 3 14 -4 17 -38 17 -37 0 -41 2
-38 23 2 14 11 23 26 25 18 3 22 10 22 37 0 20 -6 35 -15 39 -8 3 -15 12 -15
21 0 8 7 15 15 15 8 0 15 5 15 10 0 6 20 10 45 10 25 0 45 -3 45 -8 0 -4 -17
-7 -37 -6 -33 1 -34 1 -5 -3 25 -3 32 -9 33 -26 1 -21 1 -21 8 1 3 13 17 30
31 37 34 19 57 16 -242 35 -115 7 -208 16 -208 19 0 6 389 -5 425 -12z m-1055
-217 c7 -93 10 -176 7 -184 -5 -13 -17 -15 -54 -12 -27 3 -162 6 -300 8 -195
2 -253 6 -253 15 0 7 10 13 23 14 21 0 21 1 2 9 -17 7 -17 9 -2 9 24 1 22 21
-3 21 -18 0 -20 7 -20 58 0 31 4 63 9 70 5 8 7 -8 5 -40 l-3 -53 9 60 c15 92
19 98 14 18 l-4 -73 45 0 45 0 0 -40 0 -40 40 0 c36 0 40 2 40 25 0 19 5 25
17 23 10 -2 19 4 21 15 3 14 -4 17 -37 17 l-41 0 0 80 c0 73 2 80 20 80 11 0
20 -7 20 -15 0 -8 6 -15 14 -15 25 0 29 20 7 39 -12 10 -21 23 -21 30 0 20 32
12 52 -14 11 -14 30 -25 42 -25 13 0 31 -9 41 -20 11 -12 31 -20 52 -20 26 0
33 4 33 20 0 11 5 20 10 20 6 0 10 -9 10 -20 0 -11 -4 -20 -10 -20 -5 0 -10
-9 -10 -20 0 -11 5 -20 10 -20 6 0 10 -9 10 -21 0 -24 23 -21 28 4 2 10 -3 17
-12 17 -9 0 -16 7 -16 15 0 19 26 20 37 2 8 -14 53 -30 51 -18 0 3 1 24 2 46
l3 40 7 -45 c5 -29 8 -36 9 -20 l3 25 9 -25 c6 -16 7 15 5 87 -4 110 3 154 15
93 4 -18 12 -108 19 -200z m579 28 c7 -95 15 -185 17 -200 4 -27 -6 -34 -38
-29 -4 0 -125 1 -270 1 l-263 1 -3 132 c-1 72 0 129 3 126 3 -3 9 -46 14 -95
8 -86 8 -87 10 -26 1 48 4 62 16 62 8 0 15 -4 15 -10 0 -5 18 -10 40 -10 45 0
52 -15 15 -32 -36 -16 -31 -28 13 -27 20 0 31 3 25 6 -38 15 5 47 47 36 22 -6
28 -33 8 -33 -9 0 -8 -3 1 -9 8 -6 50 -7 93 -5 51 3 78 1 78 -6 0 -5 -8 -10
-17 -10 -17 -1 -17 -1 0 -11 20 -12 23 -39 5 -39 -10 0 -10 -2 -1 -8 6 -4 -47
-7 -118 -7 -71 1 -122 -3 -114 -7 8 -5 49 -7 92 -6 43 1 129 -1 191 -6 104 -7
112 -6 113 11 0 16 1 16 9 -2 7 -17 9 -16 9 10 1 45 -9 73 -28 78 -12 4 -11 5
4 6 20 1 20 5 13 114 -4 61 -10 118 -13 125 -5 14 4 42 14 42 4 0 13 -78 20
-172z m-1781 -229 c17 -1 21 -3 10 -6 -28 -7 -21 -20 10 -18 15 1 19 0 10 -2
-12 -3 -17 -12 -14 -26 3 -22 5 -22 279 -27 l276 -5 -2 39 c-1 24 3 41 11 43
8 3 12 -10 12 -46 l0 -51 -287 0 c-159 1 -322 -2 -363 -5 -192 -14 -734 -44
-737 -41 -6 5 56 14 152 21 87 7 171 26 143 32 -35 8 -17 23 30 24 l47 1 -40
10 c-22 5 -57 7 -77 5 -21 -3 -41 -1 -44 4 -3 5 4 9 15 9 30 0 484 40 501 44
8 2 21 2 28 0 8 -2 26 -5 40 -5z m1222 -71 l0 -38 -143 0 c-260 0 -447 11
-447 27 0 8 4 11 10 8 18 -11 560 -16 560 -5 0 5 -6 10 -14 10 -8 0 -16 7 -20
15 -3 10 1 15 11 15 9 0 14 2 11 5 -10 11 -58 -7 -58 -21 0 -10 -13 -14 -47
-12 l-48 1 43 4 c53 5 55 23 2 23 -22 0 -40 4 -40 9 0 5 34 9 76 9 42 1 79 3
82 6 10 11 22 -18 22 -56z m1359 26 c70 -8 82 -24 19 -25 -33 0 -38 -2 -23 -9
15 -6 8 -9 -30 -10 l-50 -2 40 -8 c22 -4 95 -10 163 -12 l122 -5 0 24 c0 21
-4 23 -50 23 -29 0 -50 5 -50 11 0 6 19 9 48 8 26 -1 53 1 60 5 8 5 12 -2 12
-23 0 -16 3 -36 6 -45 5 -13 -25 -15 -239 -16 l-245 -1 -4 46 -3 45 81 0 c45
0 109 -3 143 -6z m-1975 -264 c3 -36 9 -126 12 -200 4 -74 8 -137 10 -139 12
-13 13 24 4 184 -7 122 -7 182 0 189 7 7 10 4 10 -9 0 -19 6 -20 85 -17 l85 3
2 -33 c3 -73 0 -100 -11 -108 -10 -5 -9 -9 3 -13 26 -10 42 2 44 31 1 15 4 46
7 69 4 35 2 41 -10 37 -8 -4 -15 -1 -15 5 0 6 5 11 12 11 6 0 8 3 4 8 -4 4
-49 10 -99 13 -60 3 -8 6 151 7 155 1 241 -2 237 -8 -3 -5 3 -15 15 -22 11 -7
21 -20 21 -28 1 -8 5 1 8 20 4 20 2 38 -4 42 -5 4 -58 8 -117 8 -60 0 -108 3
-108 8 0 6 271 5 277 -2 1 -1 5 -73 8 -161 4 -88 8 -179 10 -201 3 -35 1 -43
-16 -47 -16 -4 -18 -3 -9 8 9 11 7 12 -10 8 -11 -3 -20 -2 -19 3 4 26 -2 36
-18 28 -10 -4 -130 -10 -267 -13 -161 -4 -251 -10 -253 -17 -2 -6 10 -9 29 -7
73 6 488 8 488 1 0 -3 8 -8 17 -10 9 -2 -44 -2 -117 -1 -98 2 -136 0 -142 -10
-5 -8 -8 -8 -8 -1 0 8 -22 12 -60 13 -46 0 -59 -3 -54 -12 5 -6 -1 -5 -11 3
-14 12 -19 12 -23 2 -3 -10 -7 -10 -19 -1 -12 10 -16 10 -24 -2 -6 -10 -9 -10
-9 -1 0 6 -5 12 -11 12 -5 0 -8 -3 -6 -7 3 -5 -10 -8 -28 -8 -18 0 -31 3 -28
8 2 4 -3 7 -11 7 -9 0 -16 -5 -16 -11 0 -8 -4 -8 -15 1 -16 13 -59 4 -50 -11
4 -5 1 -9 -4 -9 -6 0 -11 3 -11 8 0 4 -52 7 -115 6 -63 0 -113 2 -109 5 5 5
81 11 132 11 103 -1 122 2 122 17 0 11 -11 17 -30 15 -3 0 -47 -3 -97 -5 l-92
-5 -6 72 c-3 39 -5 116 -3 171 l3 100 70 0 c102 1 119 -5 127 -46 6 -32 7 -31
5 9 -2 33 1 42 14 42 9 0 19 7 23 15 3 8 0 15 -7 15 -8 0 -7 4 3 10 8 5 15 8
16 7 1 -1 5 -31 8 -67z m1129 64 l46 -7 6 -51 c3 -28 9 -112 14 -186 6 -99 8
-113 8 -55 1 44 -2 127 -6 185 -4 58 -4 109 0 113 4 5 10 -47 13 -115 11 -199
16 -260 21 -268 3 -5 2 -16 -2 -26 -6 -16 -7 -16 -13 2 -4 10 -13 19 -21 19
-8 0 -14 5 -14 10 -1 24 -16 35 -35 25 -10 -6 -95 -10 -191 -10 l-172 0 6 154
c6 149 5 154 -14 149 -18 -5 -19 -15 -19 -154 l0 -149 -40 0 c-22 0 -39 -3
-39 -7 4 -22 -2 -36 -10 -27 -13 13 -26 394 -14 394 17 0 23 -13 12 -26 -8
-10 36 -13 227 -13 153 -1 242 -5 250 -12 8 -6 15 -40 17 -82 l3 -72 2 85 c1
47 -2 90 -6 97 -4 7 -37 16 -72 21 -36 5 -51 10 -34 11 17 0 52 -2 77 -5z
m632 -22 c-8 -2 -13 -7 -11 -10 2 -4 7 -77 10 -162 4 -85 9 -165 12 -177 5
-18 1 -23 -28 -28 -18 -3 -64 -5 -103 -3 l-70 4 83 2 c45 1 82 6 82 11 0 5
-10 7 -22 5 l-23 -5 23 10 c26 12 29 29 5 27 -15 -1 -19 11 -24 84 -3 47 -10
109 -14 138 -5 37 -4 52 4 52 6 0 11 9 11 21 0 31 39 60 62 45 16 -9 16 -12 3
-14z m-518 -12 c-4 -17 7 -18 199 -17 l204 2 5 -40 c3 -22 7 -86 9 -142 3 -56
7 -107 11 -113 4 -7 -56 -10 -187 -11 -106 -1 -197 -2 -203 -4 -5 -1 -14 -3
-20 -4 -5 -1 -3 -6 5 -11 12 -8 11 -10 -6 -10 -19 0 -22 7 -28 92 -10 146 -8
290 5 282 6 -3 9 -14 6 -24z m1000 -82 c-5 -100 -5 -105 4 -38 5 41 9 90 10
108 2 20 7 32 16 32 8 0 11 -5 7 -12 -5 -8 39 -9 177 -4 101 3 189 3 196 -2
14 -9 37 -282 25 -294 -8 -8 -132 -16 -277 -17 -55 -1 -95 -5 -89 -9 7 -4 75
-5 152 -2 77 3 138 3 135 0 -2 -3 -77 -9 -166 -15 l-162 -10 2 -70 c1 -38 6
-142 10 -230 l7 -160 8 120 c6 84 12 124 23 134 13 14 15 4 15 -83 0 -96 0
-97 23 -92 12 3 16 3 10 0 -7 -3 -13 -17 -13 -30 0 -14 -4 -22 -10 -19 -5 3
-10 1 -10 -4 0 -7 35 -12 93 -12 82 -2 87 -2 42 -9 -27 -5 -88 -9 -135 -9 -46
-1 -170 -8 -275 -16 -104 -8 -449 -28 -765 -45 -316 -16 -647 -34 -735 -40
-88 -5 -227 -12 -310 -15 -82 -4 -159 -8 -171 -10 -20 -4 -21 0 -21 101 0 57
2 102 5 100 2 -3 16 3 30 14 13 11 29 17 36 13 7 -5 5 -9 -6 -11 -25 -5 -22
-27 4 -29 11 -1 24 -6 27 -11 3 -5 14 -11 24 -15 13 -5 17 -1 17 18 0 14 -5
25 -11 25 -6 0 -4 7 5 15 17 17 46 20 46 5 0 -5 9 -10 20 -10 11 0 20 -5 20
-11 0 -5 5 -7 10 -4 13 8 -13 35 -34 35 -11 0 -16 9 -16 30 0 29 2 30 43 30
27 0 37 3 29 9 -18 11 18 21 81 21 58 0 62 -17 5 -23 -42 -3 -42 -4 8 -5 37
-1 53 2 57 12 3 8 1 17 -6 19 -8 3 -6 7 6 12 21 9 57 -3 40 -13 -8 -5 -9 -13
-3 -22 7 -12 18 -6 54 29 47 46 50 45 59 -9 4 -20 5 -19 6 8 0 17 4 32 9 32 4
0 6 35 6 77 -1 43 2 84 6 92 9 16 17 -86 26 -321 4 -93 10 -168 13 -168 4 0 5
65 3 145 -3 106 -1 145 7 145 17 0 26 -31 12 -39 -8 -5 -6 -13 8 -25 18 -17
19 -17 26 3 3 12 11 21 16 21 5 0 9 7 9 15 0 8 6 15 14 15 24 0 28 -17 6 -23
-26 -7 -27 -47 -2 -47 10 0 28 11 40 25 12 14 28 25 34 24 10 0 10 -2 1 -6 -7
-2 -13 -13 -13 -24 0 -16 7 -19 51 -19 42 0 52 3 56 20 6 23 23 27 23 5 0 -9
7 -18 15 -21 8 -4 15 -15 15 -25 0 -10 5 -19 10 -19 6 0 10 -18 10 -39 0 -31
-4 -41 -21 -46 -11 -4 -23 -4 -26 -1 -4 3 1 6 10 6 13 0 17 9 17 40 0 29 -4
40 -15 40 -8 0 -15 7 -15 15 0 8 -4 15 -10 15 -5 0 -10 -7 -10 -15 0 -12 -13
-15 -55 -15 -46 0 -55 3 -55 18 -1 16 -1 16 -14 0 -7 -10 -24 -18 -37 -18 -22
0 -22 -1 12 -36 25 -26 35 -31 37 -20 3 11 15 16 43 16 35 0 39 -2 39 -26 0
-25 -2 -25 -40 -19 -48 8 -57 -12 -9 -22 33 -6 28 -19 -11 -26 -14 -2 12 -5
58 -6 75 -1 82 1 82 19 0 16 5 19 28 14 29 -6 29 -5 31 48 1 29 6 55 11 56 6
2 10 12 10 23 0 12 7 19 19 19 11 0 27 10 35 22 20 29 29 18 30 -37 1 -29 5
-45 14 -45 8 0 12 22 13 73 0 39 3 66 6 60 14 -37 23 -1 24 100 2 154 14 72
24 -165 4 -98 11 -178 15 -178 4 0 5 47 2 105 -3 75 -2 105 7 105 6 0 12 -21
13 -52 l1 -53 7 55 7 55 3 -70 4 -70 5 69 6 70 44 23 c24 13 61 23 83 23 27 0
38 4 38 15 0 11 11 15 40 15 33 0 40 -3 40 -20 0 -13 7 -20 20 -20 13 0 20 7
20 20 0 22 35 29 42 9 6 -19 44 10 62 48 9 19 21 31 26 28 6 -4 10 14 10 45 0
41 5 55 24 73 21 20 36 22 162 25 77 2 137 2 134 -1 -4 -4 -208 -20 -260 -20
-8 0 -17 -3 -20 -8 -3 -4 -2 -60 2 -126 3 -65 7 -165 7 -223 1 -57 4 -100 9
-95 4 6 5 75 2 155 -3 101 -1 151 7 167 10 19 9 23 -3 23 -9 0 -14 11 -14 36
0 19 4 33 9 29 5 -3 12 -1 15 4 4 5 -2 12 -11 15 -10 3 -3 4 15 2 17 -1 32 1
32 6 0 16 19 7 25 -12 3 -11 15 -20 26 -20 12 0 19 -7 19 -20 0 -20 -35 -29
-42 -11 -1 5 -19 11 -38 14 -19 2 -27 2 -17 0 9 -2 17 -13 17 -24 0 -16 7 -19
40 -19 22 0 40 5 40 10 0 6 10 10 23 10 36 0 77 -23 77 -43 0 -14 5 -17 19
-12 23 7 39 -13 17 -21 -9 -3 -16 -10 -16 -15 0 -13 27 -11 51 4 17 10 23 10
26 0 6 -16 40 -17 45 -1 3 9 13 9 39 1 19 -6 26 -11 17 -12 -20 -1 -22 -9 -8
-31 9 -13 11 -13 19 -1 9 15 11 9 24 -79 2 -14 3 54 1 150 -3 202 -2 189 -14
170 -6 -9 -10 -11 -10 -3 0 7 -7 10 -16 6 -14 -5 -15 -3 -5 15 6 11 11 22 11
24 0 2 -50 2 -111 0 -109 -3 -158 8 -108 23 34 11 40 25 22 59 -12 23 -14 47
-9 106 7 81 3 93 -39 102 -11 2 26 8 81 12 111 9 140 4 148 -22 3 -9 4 -3 2
15 -2 26 2 33 18 36 12 2 23 5 25 6 2 0 1 -50 -2 -111z m-2220 -385 c0 -21 3
-96 7 -168 15 -271 15 -304 -3 -303 -9 0 -142 -7 -296 -15 -154 -9 -350 -19
-435 -23 -166 -7 -902 7 -835 16 24 3 41 11 43 20 2 8 10 19 19 23 12 8 12 10
-2 21 -18 13 -18 48 0 46 5 -1 12 7 16 17 4 11 8 -3 10 -36 3 -46 1 -55 -14
-59 -10 -2 -16 -10 -14 -16 2 -7 38 -11 98 -12 103 0 137 8 74 17 -22 3 35 7
127 8 151 1 167 -1 170 -16 4 -20 39 389 38 449 0 20 5 40 10 43 6 3 10 1 10
-5 0 -6 4 -8 10 -5 6 4 10 -14 10 -47 0 -33 3 -48 9 -39 6 9 11 10 15 2 4 -6
36 -11 76 -11 46 0 70 -4 73 -12 2 -7 3 11 2 41 -1 29 -8 57 -14 61 -9 5 -7
11 5 21 13 10 16 10 10 1 -4 -7 -3 -18 2 -25 5 -7 12 -21 14 -32 3 -17 5 -15
10 7 3 15 1 25 -3 22 -5 -3 -9 1 -9 8 0 9 17 14 53 15 37 2 46 0 32 -7 -11 -5
-15 -9 -10 -9 6 -1 10 -62 10 -160 0 -88 3 -163 7 -166 10 -11 48 5 48 19 0
20 112 30 123 11 11 -20 37 -19 37 0 0 8 6 15 13 15 6 0 19 15 27 32 17 36 37
47 42 24 2 -11 7 -13 18 -6 13 9 13 11 0 20 -13 9 -13 11 0 20 19 12 22 12 40
-1 11 -8 12 -12 3 -16 -17 -6 -16 -20 2 -27 12 -4 15 3 15 29 0 32 -2 34 -37
38 -31 3 -29 4 7 3 30 -1 49 3 57 14 10 13 14 13 31 -6 11 -12 22 -30 25 -40
4 -17 6 -17 12 4 9 26 45 30 45 5 -1 -32 -36 -63 -70 -63 -18 0 -29 -4 -25
-10 9 -14 77 -12 98 4 9 7 17 21 17 31 0 14 3 15 15 5 8 -7 15 -16 15 -21 0
-5 -7 -9 -15 -9 -8 0 -15 -9 -15 -20 0 -17 7 -20 40 -20 23 0 40 5 40 11 0 6
7 8 16 5 11 -4 14 -1 12 12 -2 9 -10 16 -16 15 -7 -2 -12 8 -12 21 0 13 -3 32
-7 42 -4 12 -3 15 5 10 7 -4 13 -17 13 -29 1 -12 7 3 14 33 l12 55 5 -65 5
-65 1 80 c0 44 1 111 1 148 1 38 5 66 10 63 5 -3 8 -23 8 -43z m2464 -23 c0 8
5 4 9 -10 l8 -25 2 25 c2 22 3 21 12 -10 6 -19 13 -29 16 -21 3 11 6 11 12 0
5 -7 22 -12 39 -12 27 0 31 -4 31 -28 l0 -27 -105 1 c-92 1 -103 3 -92 17 8
10 5 10 -9 -2 -29 -25 -34 -23 -34 13 l0 31 55 -4 c30 -1 55 0 55 5 0 4 -4 7
-10 7 -5 0 -10 12 -10 28 0 21 2 24 10 12 9 -13 10 -13 11 0z m-3487 -172 l-7
-95 -110 -7 c-119 -8 -339 2 -332 14 3 4 41 7 85 5 56 -1 80 1 80 10 0 6 23
18 51 25 50 14 50 14 28 31 l-22 16 29 6 c17 3 32 0 37 -6 6 -9 12 -6 20 7 32
52 64 76 101 76 21 0 36 5 36 12 0 6 2 9 5 6 3 -3 3 -48 -1 -100z m3412 -178
c-16 -5 -49 -6 -73 -3 l-43 6 5 -89 c8 -140 14 -291 14 -391 1 -55 5 -93 11
-93 6 0 10 6 10 14 0 16 27 29 41 20 27 -16 1 -55 -40 -58 -11 -1 -13 -30 -12
-161 1 -88 5 -163 9 -167 4 -4 6 67 4 158 -2 117 0 164 8 159 6 -4 8 -20 4
-41 -5 -26 -3 -34 7 -32 8 2 15 -7 16 -22 11 -99 41 -178 63 -165 5 3 6 -4 3
-15 -3 -11 0 -20 6 -20 6 0 11 -15 10 -32 -1 -31 -1 -32 -9 -8 -4 14 -8 19 -9
13 -1 -7 -8 -13 -16 -13 -8 0 -15 -4 -15 -10 0 -5 7 -10 15 -10 8 0 15 -5 15
-11 0 -5 5 -7 10 -4 6 4 10 -22 10 -70 0 -49 -4 -74 -10 -70 -6 4 -8 11 -5 16
3 5 -1 6 -9 3 -10 -4 -16 -1 -16 7 0 7 -2 10 -5 7 -3 -3 2 -24 10 -48 19 -53
19 -62 -1 -30 -8 14 -13 18 -11 10 2 -8 1 -24 -4 -35 -7 -18 -8 -18 -9 5 l-2
25 -9 -25 -9 -25 5 25 c2 14 6 39 9 55 5 27 5 27 -3 5 -9 -29 -11 -26 -35 65
-8 33 -14 69 -12 80 2 11 1 14 -1 8 -7 -19 -21 -16 -28 6 -5 16 -20 37 -53 76
-52 60 -102 86 -165 88 -134 2 -247 -119 -252 -270 -1 -41 -8 -80 -14 -86 -8
-8 -11 -6 -11 8 0 13 -7 6 -21 -20 -18 -34 -21 -50 -15 -109 4 -38 9 -79 12
-91 5 -21 -1 -22 -183 -48 -103 -15 -260 -39 -348 -52 -227 -35 -711 -104
-880 -125 -110 -14 -289 -40 -302 -45 -9 -3 -13 6 -13 28 0 53 -28 168 -57
237 -38 91 -81 155 -152 225 -34 33 -61 65 -61 72 0 17 -53 39 -58 24 -2 -6
-8 -11 -14 -11 -6 0 -8 6 -5 13 3 9 -20 11 -104 9 -87 -3 -112 0 -124 12 -16
16 -45 15 -170 -3 -113 -16 -178 -44 -270 -115 -21 -17 -44 -31 -50 -31 -5 0
-10 -4 -10 -10 0 -15 -47 -75 -55 -70 -4 2 -7 -2 -7 -10 0 -25 12 -17 56 35
23 27 52 55 64 61 12 6 3 -7 -20 -30 -23 -23 -47 -50 -53 -61 -9 -17 -7 -20
14 -26 14 -3 31 -13 39 -22 18 -20 27 -89 12 -89 -33 0 -44 -6 -55 -33 -10
-24 -19 -30 -42 -30 -24 0 -32 6 -44 37 -10 24 -14 52 -10 82 5 42 4 44 -6 16
-6 -16 -14 -66 -17 -110 -5 -72 -8 -81 -31 -92 -28 -14 -37 -42 -39 -124 0
-31 -4 -78 -8 -104 l-6 -48 -91 6 c-50 3 -114 13 -143 22 -44 13 -53 20 -62
48 -12 36 -41 313 -41 388 0 29 -5 51 -13 56 -8 4 -17 17 -20 27 -6 16 -5 17
8 6 13 -11 15 -5 15 52 l0 65 -38 6 -37 6 0 61 0 60 33 0 c23 0 40 8 55 26 15
17 36 27 67 31 25 3 50 9 55 14 6 4 27 9 47 11 20 1 36 7 35 12 -1 6 9 12 23
14 17 2 21 0 12 -6 -11 -7 -11 -12 2 -25 16 -16 54 -15 107 3 22 7 27 5 25 -8
-2 -9 -14 -20 -27 -24 -49 -14 89 3 161 20 51 12 75 22 75 32 0 8 -5 14 -11
13 -5 -1 -16 8 -23 19 -13 20 -12 20 17 -1 19 -13 33 -17 37 -11 12 20 35 10
35 -15 0 -27 -30 -45 -76 -45 -13 0 -24 -4 -24 -9 0 -5 28 -2 63 5 58 13 299
44 341 44 15 0 16 3 6 15 -11 13 -10 14 4 9 9 -3 16 -10 16 -16 0 -5 8 -7 18
-4 9 3 42 8 72 11 86 7 133 16 163 28 32 14 34 23 7 32 -11 3 -20 11 -20 17 0
9 21 7 73 -8 9 -3 17 -1 17 5 0 15 41 13 63 -3 16 -13 25 -42 9 -32 -4 3 -7
-14 -5 -37 2 -23 4 -50 4 -61 0 -10 3 -16 6 -13 3 3 20 -10 38 -29 32 -34 45
-41 45 -26 0 5 -10 14 -22 20 -13 6 -17 11 -9 11 14 1 78 51 64 51 -4 0 -21
-7 -37 -15 -24 -13 -31 -13 -38 -3 -4 7 -8 9 -8 5 0 -5 -7 -2 -15 7 -19 19
-19 44 0 90 15 35 14 36 -5 36 -12 0 -18 5 -15 10 4 6 -10 10 -34 10 -22 0
-43 4 -46 10 -4 6 30 9 93 7 55 -1 98 -5 95 -9 -2 -5 -12 -8 -21 -8 -10 0 -13
-3 -7 -8 6 -4 10 -13 11 -19 2 -29 4 -34 13 -29 4 3 7 -7 5 -22 -2 -15 -1 -19
2 -10 5 15 8 16 19 5 7 -7 15 -22 18 -33 3 -12 5 -7 6 14 1 21 6 32 16 32 8 0
15 4 15 9 0 13 -26 32 -33 24 -4 -3 -7 1 -7 10 0 9 5 17 10 17 6 0 10 5 10 11
0 5 -4 7 -10 4 -6 -4 -7 43 -3 135 4 103 3 140 -5 140 -7 0 -12 7 -12 16 0 8
5 12 10 9 6 -3 10 -2 10 3 0 6 -7 12 -15 16 -17 6 -21 36 -5 36 6 0 10 16 10
35 0 26 -9 44 -38 75 -34 35 -45 40 -83 40 -24 0 -50 4 -58 9 -8 5 8 8 43 6
32 -2 64 -9 72 -15 8 -7 14 -9 14 -4 0 5 5 2 10 -6 9 -13 11 -13 19 0 7 10 6
17 -2 22 -8 5 -4 8 10 8 12 0 25 -4 28 -10 3 -5 -1 -10 -9 -10 -9 0 -16 -2
-16 -4 0 -2 -3 -12 -6 -21 -4 -10 -2 -15 6 -13 23 6 37 -78 43 -262 4 -112 11
-188 17 -194 7 -7 10 -7 9 -1 -2 6 3 27 10 47 7 21 10 42 6 48 -3 5 -4 10 0
10 3 0 9 -10 14 -22 7 -18 8 -14 7 20 0 24 -5 41 -11 38 -9 -3 -12 68 -5 99 1
6 2 13 1 18 -2 12 27 8 32 -5 3 -7 6 19 6 58 l1 71 48 1 c26 1 72 5 102 9 30
4 68 7 83 6 16 0 24 3 17 7 -21 13 2 18 122 24 113 6 118 5 145 -18 l28 -24
-2 -129 c-3 -110 -6 -132 -23 -155 -24 -32 -25 -39 -5 -32 8 4 15 13 15 21 0
8 4 12 8 9 10 -6 9 -13 17 146 3 73 2 143 -4 163 -8 29 -7 35 5 35 24 0 5 20
-19 21 -16 1 -14 3 8 8 17 3 29 10 28 14 -2 4 -3 22 -3 40 0 21 -3 28 -9 19
-6 -11 -10 -10 -15 3 -4 11 0 23 11 32 16 12 -1 13 -127 8 -80 -3 -206 -10
-280 -15 -74 -5 -146 -9 -159 -10 l-24 0 7 -140 c5 -120 4 -140 -9 -140 -9 0
-14 8 -12 23 1 12 -3 21 -8 20 -7 -1 -9 12 -7 33 3 22 0 34 -8 34 -6 0 -9 8
-6 18 4 10 0 27 -8 37 -14 20 -7 36 24 48 12 4 11 6 -2 6 -23 1 -23 13 2 34
11 9 20 22 20 28 0 8 -4 8 -14 0 -8 -7 -29 -11 -47 -10 -51 2 -579 -33 -689
-46 -19 -3 -55 -6 -80 -9 -39 -3 -40 -3 -10 4 32 6 30 7 -20 8 -40 1 -51 -1
-40 -8 11 -8 7 -9 -15 -3 -16 4 -38 7 -47 7 -13 0 -16 6 -12 26 5 21 3 20 -12
-7 l-16 -33 -92 0 c-50 0 -98 5 -106 10 -10 7 20 8 89 3 82 -5 103 -4 96 6 -4
8 -17 10 -31 7 -13 -4 -24 -2 -24 2 0 5 -28 7 -62 5 -35 -3 -60 -1 -56 3 4 4
3 13 -3 21 -16 19 9 18 31 -2 11 -10 24 -12 45 -7 28 8 48 32 25 32 -6 0 -8
-4 -5 -10 3 -5 0 -10 -9 -10 -8 0 -23 -3 -33 -6 -10 -3 -7 1 7 10 24 14 22 15
-38 12 -34 -1 -57 1 -50 6 7 4 31 8 53 9 22 0 51 4 65 9 14 4 -18 5 -70 3 -52
-3 -120 0 -150 5 -41 7 29 10 275 11 182 1 431 8 555 16 124 7 286 17 361 21
l135 7 -4 -37 c-3 -22 0 -36 7 -36 6 0 11 16 11 35 0 28 4 36 23 39 12 3 159
12 327 21 168 8 427 22 575 30 887 49 1173 66 1200 69 17 1 80 3 140 4 77 0
101 -2 81 -8z m110 -455 c-7 -40 -7 -40 -46 -37 l-40 4 0 122 c0 88 4 129 15
150 8 15 12 33 8 39 -3 5 -1 7 4 4 6 -4 19 3 29 14 19 21 19 19 27 -117 5 -76
6 -156 3 -179z m49 -744 c-18 -71 -24 30 -25 379 -1 613 2 637 17 125 7 -264
11 -491 8 -504z m-3917 898 c21 -16 26 -28 23 -52 -4 -43 -13 -55 -22 -31 -7
17 -8 17 -8 1 -1 -10 5 -20 12 -23 10 -3 11 -28 4 -112 -4 -59 -13 -109 -18
-110 -6 -3 -6 -9 1 -17 7 -9 6 -16 -5 -25 -17 -14 -21 -75 -5 -65 11 7 12 0 4
-32 -4 -13 -12 -23 -19 -23 -9 0 -12 -11 -8 -38 8 -59 -11 -72 -95 -65 -135
11 -153 22 -32 20 l115 -2 -3 53 c-3 39 -1 52 9 50 10 -2 13 15 14 64 0 38 -4
68 -8 68 -5 0 -7 -25 -5 -55 4 -66 12 -62 -140 -68 -81 -4 -104 -2 -110 9 -5
9 -8 -2 -9 -28 -1 -23 3 -48 9 -55 8 -10 7 -12 -5 -7 -20 7 -24 45 -16 154 3
47 2 90 -2 95 -11 14 9 229 21 233 6 2 10 12 10 22 0 24 27 30 148 30 84 0
102 3 102 15 0 20 7 19 38 -6z m396 -71 c15 -202 16 -298 2 -298 -8 0 -16 -9
-19 -20 -8 -30 -42 -25 -133 21 -62 32 -93 41 -135 43 l-54 1 -8 -70 c-5 -38
-13 -74 -19 -80 -7 -7 -9 -4 -5 10 5 18 9 63 22 280 3 39 8 93 11 122 l6 52
72 4 c39 1 112 4 163 5 l91 2 6 -72z m364 -143 c4 -143 2 -175 -9 -175 -8 0
-24 -3 -35 -6 -20 -5 -22 0 -34 80 -6 46 -17 92 -23 100 -9 12 -34 16 -99 17
l-88 2 0 68 c0 43 5 71 13 76 18 12 250 30 262 21 5 -5 11 -86 13 -183z m216
103 c9 -34 6 -256 -3 -233 -7 17 -9 17 -17 3 -5 -9 -25 -20 -46 -26 l-36 -10
-5 42 c-3 22 -4 55 -2 71 1 17 3 56 4 87 1 66 17 88 66 88 25 0 34 -5 39 -22z
m305 5 c3 -5 5 -63 3 -130 l-3 -122 -92 6 c-51 2 -95 8 -99 11 -5 6 -13 213
-9 246 1 11 192 0 200 -11z m2204 -713 c57 -67 57 -201 0 -282 -49 -72 -132
-57 -174 30 -43 87 -6 244 64 272 46 18 84 11 110 -20z m-3751 -134 c22 -27
17 -99 -8 -127 -22 -25 -30 -24 -59 6 -47 46 -24 165 28 149 12 -3 30 -16 39
-28z m1333 -173 c42 -12 85 -55 96 -97 36 -132 -37 -285 -143 -302 -41 -7 -90
10 -83 29 3 7 -7 24 -22 37 l-28 25 24 -27 c26 -30 23 -51 -3 -25 -20 20 -41
71 -25 61 7 -4 6 3 -2 17 -16 30 -22 109 -8 109 6 0 7 -5 3 -12 -4 -7 -3 -8 4
-4 14 8 16 46 3 46 -18 0 2 42 25 52 12 6 20 16 18 23 -3 7 2 15 10 18 9 4 16
14 16 23 0 10 5 14 14 11 9 -4 17 2 21 14 6 19 16 19 80 2z m-725 -109 l32 -7
-4 -63 c-3 -64 -3 -64 27 -74 29 -10 74 -50 56 -50 -4 0 -6 -11 -3 -25 2 -15
0 -25 -7 -25 -6 0 -11 5 -11 11 0 5 -5 7 -10 4 -6 -4 -10 -12 -9 -18 1 -7 1
-24 0 -38 -2 -51 -79 -56 -110 -6 -19 28 -22 297 -5 297 6 0 26 -3 44 -6z"/>
<path d="M2850 1929 c-63 -5 -135 -10 -159 -11 l-45 -3 2 -110 c5 -264 25
-735 32 -790 7 -45 8 -22 5 90 -2 83 0 168 5 190 l8 40 2 -45 c1 -35 3 -41 10
-25 6 13 7 4 4 -30 -2 -27 -1 -43 2 -35 4 8 17 22 28 32 12 10 15 17 9 18 -8
0 -13 15 -13 40 0 33 3 40 20 40 16 0 20 -7 20 -36 0 -45 19 -64 63 -64 20 0
37 -6 40 -12 3 -10 7 -10 20 1 23 18 21 31 -3 31 -11 0 -20 3 -20 8 0 4 9 13
20 20 11 7 20 21 20 32 0 14 7 20 21 20 11 0 18 4 15 9 -10 15 94 18 107 3 9
-11 3 -13 -29 -8 -36 5 -36 5 -9 -4 18 -5 43 -6 60 -1 l30 9 -25 10 c-23 9
-21 10 25 17 28 3 61 10 75 15 48 16 -24 13 -325 -15 -157 -14 -185 -15 -185
-4 0 23 33 41 78 44 83 4 275 26 323 36 l46 10 -1 47 c-1 41 -4 47 -21 45
-210 -23 -217 -23 -248 -8 -16 8 -35 15 -41 15 -7 0 -10 33 -8 102 2 57 5 105
7 106 2 2 34 4 72 5 37 0 52 2 33 4 -19 3 -39 8 -44 13 -5 5 -1 7 10 4 10 -2
63 -1 117 4 86 7 101 6 125 -10 36 -23 40 -42 41 -180 1 -89 -2 -119 -13 -125
-19 -11 -29 -50 -15 -59 8 -4 9 -3 5 4 -4 7 2 22 13 34 23 24 23 22 21 202 -2
142 -5 162 -26 145 -10 -8 -15 -3 -23 23 -9 27 -10 28 -7 6 2 -16 2 -28 0 -28
-2 0 -21 18 -41 40 -21 24 -39 37 -43 30 -4 -6 -13 -5 -26 5 -18 14 -18 14 6
15 22 1 23 2 5 9 -19 7 38 18 132 25 18 2 36 6 40 9 8 9 -202 6 -347 -4z
m-106 -211 c3 -13 6 -50 6 -83 0 -57 -2 -61 -35 -83 -35 -25 -35 -26 -26 -109
0 -7 11 -13 23 -13 27 0 21 -7 -11 -12 -18 -2 -25 2 -27 17 -2 16 -6 270 -4
298 0 4 15 7 34 7 26 0 35 -5 40 -22z"/>
<path d="M4197 1900 c-16 -17 -39 -30 -52 -30 -26 0 -42 -16 -24 -22 14 -5 34
-242 23 -267 -4 -9 -6 -19 -6 -23 1 -5 -12 -8 -30 -8 -50 0 -26 -10 36 -15 48
-3 57 -1 67 16 6 11 8 27 5 34 -3 8 -2 17 3 19 4 3 7 47 6 98 -1 51 3 99 8
106 6 8 5 12 -4 12 -10 0 -10 3 -2 11 16 16 4 39 -21 40 -20 0 -20 1 -1 8 11
5 23 7 28 4 4 -2 7 7 7 21 0 34 -9 33 -43 -4z"/>
<path d="M3773 1745 l1 -150 5 115 c3 63 10 113 14 110 5 -3 8 -67 8 -142 -2
-107 1 -138 11 -138 10 0 9 -3 -2 -9 -8 -6 -18 -7 -22 -5 -4 3 -8 1 -8 -5 0
-5 8 -11 17 -13 27 -5 208 10 245 21 l33 9 -35 2 c-19 1 -27 4 -17 7 9 2 15 9
12 14 -6 8 31 14 62 10 9 -1 10 5 4 21 -4 13 -12 23 -17 23 -5 1 -20 4 -34 7
-24 7 -25 11 -28 99 -2 51 -8 103 -13 117 -9 23 -11 24 -87 17 -42 -4 -89 -9
-104 -11 -22 -3 -28 1 -36 24 -6 19 -9 -17 -9 -123z"/>
<path d="M3580 1830 c-25 -5 -106 -11 -180 -15 l-135 -7 0 -169 c0 -93 -1
-169 -3 -169 -1 0 -7 10 -12 23 -7 17 -9 11 -8 -29 1 -41 4 -49 14 -40 9 8 9
14 0 25 -9 12 -8 14 4 9 9 -3 101 3 205 13 105 10 200 18 213 19 13 0 22 6 22
15 0 8 5 15 12 15 9 0 9 3 0 12 -7 7 -13 26 -14 43 -1 23 -2 20 -7 -14 -3 -25
-12 -46 -19 -47 -7 -1 -9 0 -4 2 5 2 5 28 1 57 -4 28 -8 94 -8 145 -1 85 -3
92 -21 92 -13 0 -18 5 -14 15 4 8 5 14 3 14 -2 -1 -24 -5 -49 -9z"/>
<path d="M2224 1512 c-4 -13 -14 -17 -39 -16 -25 1 -34 -3 -38 -17 -4 -15 -14
-19 -46 -19 -36 0 -41 -3 -41 -22 0 -42 13 -50 71 -43 l54 5 -40 -15 c-38 -14
-39 -14 -8 -12 18 2 29 -1 26 -6 -3 -5 -19 -7 -37 -4 -21 3 -35 -1 -43 -12
-10 -14 -13 -12 -25 16 l-14 33 -1 -49 c0 -38 2 -48 13 -44 8 3 14 9 14 15 0
5 4 7 9 4 5 -4 11 -2 13 4 1 5 70 16 152 25 83 8 152 18 155 22 3 3 -18 3 -46
1 -29 -3 -53 -2 -53 2 0 4 54 13 120 20 89 9 120 16 121 26 6 67 4 75 -18 69
-12 -3 -63 -10 -115 -15 -51 -6 -102 -11 -113 -13 -16 -2 -21 5 -23 31 -3 24
-8 32 -24 32 -11 0 -22 -8 -24 -18z"/>
<path d="M2505 1335 c-263 -27 -362 -37 -410 -44 l-50 -6 -1 -65 c-1 -36 2
-123 6 -195 l7 -130 1 186 2 186 108 7 c131 9 176 13 270 26 83 11 158 13 149
4 -4 -4 -45 -8 -92 -10 -48 -2 -95 -8 -105 -14 -10 -5 -43 -10 -72 -11 -50 -1
-51 -1 -18 -9 20 -5 53 -5 75 0 49 12 116 12 132 2 9 -6 7 -12 -7 -22 -43 -31
-8 -59 54 -42 23 7 38 6 45 -1 16 -16 24 -2 16 32 -7 35 -38 42 -54 14 -5 -10
-13 -14 -18 -9 -4 5 -2 11 5 13 6 3 12 10 12 17 0 9 9 12 24 9 26 -5 46 15 26
27 -9 6 -7 10 8 14 22 7 39 37 19 35 -7 -1 -66 -7 -132 -14z"/>
<path d="M451 1091 c-12 -8 -13 -40 -7 -193 16 -409 23 -519 32 -528 18 -18
190 -51 216 -41 l23 8 -4 339 c-2 186 -7 349 -12 361 -4 12 -17 27 -28 32 -49
27 -93 1 -86 -50 7 -55 8 -539 2 -546 -4 -3 -9 -4 -12 -2 -2 3 -7 108 -10 235
-8 310 -10 331 -45 366 -30 29 -46 34 -69 19z"/>
<path d="M1162 4166 c-74 -13 -137 -28 -141 -35 -4 -6 -5 -26 -3 -43 4 -28 6
-29 12 -12 12 30 32 43 55 33 11 -4 14 -8 6 -8 -22 -1 8 -31 31 -31 10 0 16
-4 13 -10 -3 -5 -1 -10 4 -10 6 0 11 6 11 13 0 8 3 8 9 -2 7 -11 17 -12 54 -2
25 6 61 11 80 11 27 0 36 5 40 21 3 12 0 22 -9 26 -24 9 -3 25 25 19 l26 -6
-25 15 c-21 12 -22 14 -6 15 11 0 28 -7 38 -17 21 -19 27 -16 30 18 3 23 0 24
-57 25 -33 1 -120 -8 -193 -20z"/>
<path d="M971 2691 c-10 -7 -11 -16 -5 -37 5 -16 8 -43 6 -61 -3 -30 -6 -32
-50 -38 -59 -8 -74 -13 -42 -14 20 -1 22 -3 10 -11 -10 -7 22 -9 98 -9 69 0
112 4 112 11 0 6 22 8 54 6 48 -3 54 -1 54 17 0 19 -5 20 -92 14 -50 -4 -92
-6 -94 -4 -1 1 -3 25 -3 53 -2 55 -23 88 -48 73z"/>
</g>
</svg>
