<?xml version="1.0" standalone="no"?>
<!DOCTYPE svg PUBLIC "-//W3C//DTD SVG 20010904//EN"
 "http://www.w3.org/TR/2001/REC-SVG-20010904/DTD/svg10.dtd">
<svg version="1.0" xmlns="http://www.w3.org/2000/svg"
 width="240.000000pt" height="240.000000pt" viewBox="0 0 240.000000 240.000000"
 preserveAspectRatio="xMidYMid meet">
<metadata>
Created by potrace 1.12, written by Peter Selinger 2001-2015
</metadata>
<g transform="translate(0.000000,240.000000) scale(0.100000,-0.100000)"
fill="#000000" stroke="none">
<path d="M750 1800 l0 -40 205 0 205 0 0 40 0 40 -205 0 -205 0 0 -40z"/>
<path d="M1240 1800 l0 -40 205 0 205 0 0 40 0 40 -205 0 -205 0 0 -40z"/>
<path d="M583 1800 c-106 -38 -237 -136 -290 -217 -16 -24 -16 -26 8 -44 13
-10 28 -19 32 -19 5 0 32 26 60 57 61 66 148 125 220 149 29 9 53 17 54 18 5
4 -19 76 -25 76 -4 -1 -31 -9 -59 -20z"/>
<path d="M1741 1783 c-6 -20 -9 -38 -8 -39 1 -1 25 -9 54 -18 72 -24 159 -83
220 -149 28 -31 55 -57 60 -57 4 0 19 9 32 19 24 18 24 20 8 44 -29 45 -119
127 -178 163 -45 27 -156 74 -175 74 -2 0 -8 -17 -13 -37z"/>
<path d="M764 1658 c3 -13 6 -31 6 -40 0 -17 16 -18 200 -18 l200 0 0 40 0 40
-206 0 -206 0 6 -22z"/>
<path d="M1230 1640 l0 -40 200 0 c184 0 200 1 200 18 0 9 3 27 6 40 l6 22
-206 0 -206 0 0 -40z"/>
<path d="M590 1629 c-57 -29 -180 -135 -180 -156 0 -5 14 -17 32 -27 l32 -19
30 35 c42 47 96 86 149 106 50 19 52 21 43 62 -7 39 -26 39 -106 -1z"/>
<path d="M1704 1630 c-9 -41 -7 -43 43 -62 53 -20 107 -59 149 -106 l30 -35
32 19 c18 10 32 22 32 27 0 21 -123 127 -180 156 -80 40 -99 40 -106 1z"/>
<path d="M780 1480 l0 -40 201 0 200 0 -3 38 -3 37 -197 3 -198 2 0 -40z"/>
<path d="M1227 1513 c-4 -3 -7 -21 -7 -40 l0 -33 200 0 200 0 0 40 0 40 -193
0 c-107 0 -197 -3 -200 -7z"/>
<path d="M670 1489 c-40 -18 -130 -93 -130 -109 0 -3 14 -14 30 -24 l31 -18
37 34 c20 18 52 40 70 47 32 13 37 26 26 69 -8 27 -8 27 -64 1z"/>
<path d="M1666 1488 c-11 -43 -6 -56 26 -69 18 -7 50 -29 70 -47 l37 -34 31
18 c16 10 30 21 30 24 0 12 -86 88 -115 103 -59 29 -72 29 -79 5z"/>
<path d="M212 1445 c-37 -82 -56 -225 -42 -323 9 -63 41 -176 54 -189 6 -6 66
26 66 35 0 4 -10 36 -21 72 -29 90 -29 230 0 320 11 36 21 68 21 72 0 7 -52
38 -63 38 -2 0 -9 -11 -15 -25z"/>
<path d="M2138 1454 c-16 -8 -28 -18 -28 -22 0 -4 10 -36 21 -72 15 -47 21
-91 21 -160 0 -69 -6 -113 -21 -160 -11 -36 -21 -68 -21 -72 0 -9 60 -41 66
-35 3 2 14 30 25 61 48 137 43 314 -12 449 -13 31 -14 31 -51 11z"/>
<path d="M354 1365 c-35 -86 -35 -244 0 -330 17 -40 17 -40 57 -19 22 11 29
20 24 32 -20 50 -26 84 -26 152 0 68 6 102 26 152 5 12 -2 21 -24 32 -40 21
-40 21 -57 -19z"/>
<path d="M1987 1384 c-21 -11 -27 -20 -22 -32 37 -90 37 -214 0 -304 -5 -12 2
-21 24 -33 18 -9 36 -13 41 -10 20 12 43 121 42 200 0 80 -26 186 -47 191 -5
2 -23 -4 -38 -12z"/>
<path d="M499 1293 c-16 -49 -16 -137 0 -185 7 -21 14 -38 15 -38 2 0 17 5 35
11 31 11 32 13 25 53 -10 52 -10 80 0 132 7 37 5 41 -19 52 -38 18 -42 16 -56
-25z"/>
<path d="M1842 1318 c-21 -10 -22 -16 -16 -52 10 -52 10 -80 0 -132 -7 -40 -6
-42 25 -53 18 -6 33 -11 35 -11 1 0 8 17 15 38 24 72 7 223 -24 221 -7 0 -22
-5 -35 -11z"/>
<path d="M570 1043 c-14 -9 -27 -18 -29 -20 -3 -2 15 -23 39 -48 39 -39 135
-93 146 -82 3 3 7 20 10 39 6 32 4 35 -34 52 -22 10 -53 31 -68 47 -32 34 -32
34 -64 12z"/>
<path d="M1766 1031 c-15 -16 -46 -37 -68 -47 -38 -17 -40 -20 -34 -52 3 -19
7 -37 10 -39 10 -11 104 41 144 80 23 22 42 44 42 47 0 5 -54 40 -62 40 -2 0
-17 -13 -32 -29z"/>
<path d="M431 950 l-23 -20 26 -35 c49 -64 191 -155 242 -155 8 0 17 13 20 30
4 16 7 32 8 36 0 3 -20 14 -45 24 -58 21 -129 72 -158 111 -25 34 -37 35 -70
9z"/>
<path d="M1898 942 c-36 -45 -100 -91 -154 -111 -27 -11 -48 -22 -48 -25 1 -4
4 -20 8 -36 3 -17 12 -30 20 -30 51 0 193 91 242 155 l26 35 -23 20 c-32 26
-44 25 -71 -8z"/>
<path d="M780 920 l0 -40 198 2 197 3 3 38 3 37 -200 0 -201 0 0 -40z"/>
<path d="M1222 923 l3 -38 198 -3 197 -2 0 40 0 40 -201 0 -200 0 3 -37z"/>
<path d="M303 863 c-13 -8 -23 -19 -23 -23 0 -16 73 -95 129 -140 57 -45 163
-102 213 -114 25 -6 28 -3 37 31 6 20 9 37 8 38 -1 1 -29 11 -62 24 -84 31
-145 73 -209 142 -30 32 -59 59 -63 58 -4 0 -18 -7 -30 -16z"/>
<path d="M2005 823 c-57 -65 -130 -114 -213 -145 -31 -12 -58 -22 -59 -23 -4
-2 17 -75 21 -75 13 0 100 35 141 57 84 44 225 171 225 203 0 9 -45 40 -57 39
-4 0 -30 -25 -58 -56z"/>
<path d="M770 783 c0 -10 -3 -28 -6 -40 l-6 -23 206 0 206 0 0 40 0 40 -200 0
c-184 0 -200 -1 -200 -17z"/>
<path d="M1230 760 l0 -40 206 0 206 0 -6 23 c-3 12 -6 30 -6 40 0 16 -16 17
-200 17 l-200 0 0 -40z"/>
<path d="M750 600 l0 -40 205 0 205 0 0 40 0 40 -205 0 -205 0 0 -40z"/>
<path d="M1240 600 l0 -40 205 0 205 0 0 40 0 40 -205 0 -205 0 0 -40z"/>
</g>
</svg>
